<svg width="200" height="55" viewBox="0 0 200 55" fill="none" xmlns="http://www.w3.org/2000/svg">
<g id="Bitcoin-Startup-Lab-e1706193369879 1">
<path id="Vector" d="M44.5185 9.6578C47.6103 12.6069 49.853 16.0862 51.1107 20.1851C51.179 20.399 51.2472 20.6129 51.3176 20.8333C53.1122 26.9114 52.2866 33.6644 49.3247 39.2382C46.192 44.8582 41.0017 49.1935 34.8267 51.093C30.6572 52.2458 26.2617 52.544 22.0366 51.4814C21.9114 51.4516 21.7862 51.4218 21.6572 51.3911C15.328 49.8531 10.1506 45.7686 6.65466 40.3472C3.28338 34.6904 2.17798 27.9469 3.77841 21.5307C5.4952 14.9838 9.72477 9.49951 15.554 6.0796C24.9413 0.829085 36.7062 2.3685 44.5185 9.6578ZM10.6462 12.6413C9.24288 14.144 9.24288 14.144 8.51809 15.9259C10.3129 15.9716 12.1077 16.0122 13.9028 16.0463C14.7363 16.0623 15.5697 16.08 16.4032 16.1018C17.2076 16.1227 18.012 16.1391 18.8166 16.1522C19.1234 16.158 19.4302 16.1655 19.7369 16.1747C20.167 16.1872 20.5967 16.1939 21.0269 16.1992C21.1534 16.2042 21.28 16.2093 21.4104 16.2145C22.1124 16.2162 22.3817 16.1323 22.9264 15.6742C23.0605 15.5128 23.1947 15.3514 23.3329 15.1851C23.4905 15.0185 23.648 14.8519 23.8103 14.6802C24.6268 13.7945 25.4262 12.9079 26.1801 11.9675C26.8342 11.154 27.5253 10.389 28.2403 9.62958C29.2501 8.55647 30.1955 7.45197 31.1107 6.29625C31.3575 5.98757 31.6044 5.67891 31.8514 5.37033C23.7862 4.21075 16.1843 6.53879 10.6462 12.6413ZM32.9625 5.7407C33.1927 6.84312 33.4693 7.91837 33.8031 8.99373C33.8478 9.1398 33.8926 9.28588 33.9387 9.43637C34.1828 10.231 34.4305 11.0245 34.6791 11.8178C34.7295 11.9785 34.7798 12.1392 34.8317 12.3048C34.9327 12.6269 35.0339 12.9489 35.1351 13.2709C35.4242 14.1945 35.6961 15.1202 35.953 16.0532C36.012 16.2564 36.0711 16.4597 36.1319 16.6691C36.2372 17.0317 36.3362 17.3962 36.4272 17.7626C36.6524 18.5079 36.8471 18.94 37.4931 19.3968C38.0716 19.6939 38.6551 19.9435 39.2588 20.1851C39.6486 20.357 40.0383 20.5291 40.4278 20.7016C40.8403 20.8774 41.2531 21.0525 41.6662 21.2268C42.0033 21.3698 42.3403 21.5128 42.6773 21.6558C42.9096 21.7544 43.1419 21.853 43.3742 21.9514C44.2256 22.3127 45.0738 22.6811 45.9212 23.0519C46.2779 23.2073 46.6346 23.3626 46.9914 23.5178C47.2216 23.6183 47.4516 23.7193 47.6813 23.8208C48.0007 23.9617 48.3208 24.1007 48.6411 24.2397C48.8234 24.3196 49.0056 24.3995 49.1935 24.4819C49.4091 24.555 49.4091 24.555 49.6292 24.6296C49.7514 24.5685 49.8736 24.5074 49.9996 24.4444C48.9067 18.1804 45.8604 12.9013 40.7403 9.07403C38.6149 7.60355 35.6347 5.7407 32.9625 5.7407ZM7.77735 16.8518C4.96107 22.4276 4.29172 28.6708 6.238 34.6643C7.18001 37.3951 8.48169 39.9893 10.5551 42.037C11.3229 40.2806 11.9558 38.4929 12.569 36.6782C12.6667 36.3901 12.7644 36.102 12.8621 35.814C13.0075 35.3852 13.1528 34.9564 13.2977 34.5274C13.5737 33.7112 13.8552 32.8971 14.1424 32.0847C14.2353 31.8179 14.2353 31.8179 14.3302 31.5458C14.4408 31.2284 14.5532 30.9117 14.6678 30.5957C14.7155 30.4571 14.7631 30.3185 14.8122 30.1757C14.8533 30.0599 14.8945 29.944 14.9369 29.8247C15.0851 28.9255 14.7924 28.1961 14.3398 27.4348C14.1895 27.1792 14.1895 27.1792 14.036 26.9184C13.9262 26.736 13.8164 26.5536 13.7033 26.3657C13.5896 26.174 13.476 25.9823 13.3589 25.7847C12.9823 25.1513 12.6027 24.5197 12.2218 23.8888C12.1541 23.7767 12.0865 23.6645 12.0168 23.549C11.1548 22.1204 10.2884 20.6945 9.41797 19.271C8.99564 18.5751 8.58221 17.8742 8.17159 17.1714C8.06811 17.0132 8.06811 17.0132 7.96253 16.8518C7.90142 16.8518 7.84031 16.8518 7.77735 16.8518ZM27.407 17.2222C27.1625 18.0777 26.9181 18.9333 26.6662 19.8148C25.8325 20.0232 25.4112 19.9255 24.5829 19.7338C24.232 19.6539 24.232 19.6539 23.874 19.5724C23.6954 19.5302 23.5169 19.4879 23.3329 19.4444C23.2107 19.8722 23.0885 20.3 22.9625 20.7407C23.0807 20.792 23.1989 20.8433 23.3206 20.8962C23.4736 20.9633 23.6266 21.0304 23.7843 21.0995C23.9368 21.1661 24.0894 21.2327 24.2465 21.3013C24.6292 21.4814 24.6292 21.4814 24.8144 21.6666C24.8705 22.6802 24.721 23.581 24.5033 24.5623C24.4713 24.7108 24.4393 24.8593 24.4063 25.0123C24.3388 25.3241 24.2706 25.6359 24.2018 25.9474C24.0968 26.4237 23.9943 26.9005 23.8921 27.3773C23.8259 27.6813 23.7596 27.9853 23.6931 28.2892C23.6627 28.4311 23.6322 28.5731 23.6007 28.7194C23.3045 30.0485 23.3045 30.0485 22.9625 30.5555C22.5213 30.6684 22.5213 30.6684 22.0135 30.6944C21.8449 30.7049 21.6764 30.7154 21.5028 30.7262C21.3734 30.731 21.244 30.7358 21.1107 30.7407C20.9273 31.2296 20.744 31.7185 20.5551 32.2222C20.7802 32.2692 21.0053 32.3162 21.2373 32.3647C21.5308 32.4289 21.8242 32.4933 22.1176 32.5578C22.2662 32.5885 22.4148 32.6192 22.5679 32.6508C22.951 32.7364 23.328 32.8481 23.7033 32.9629C23.9221 33.6193 23.7862 33.9767 23.6071 34.6281C23.5017 35.0685 23.4899 35.4749 23.5181 35.9259C23.8848 35.987 24.2514 36.0481 24.6292 36.1111C25.0755 34.8355 25.0755 34.8355 25.3699 33.5185C26.0271 33.5035 26.5892 33.529 27.2218 33.7037C27.1817 33.8421 27.1416 33.9806 27.1003 34.1232C27.0487 34.3056 26.9971 34.488 26.944 34.6759C26.8925 34.8563 26.8409 35.0368 26.7878 35.2228C26.638 35.7722 26.638 35.7722 26.6662 36.4814C27.094 36.5425 27.5218 36.6037 27.9625 36.6666C28.0559 36.308 28.1483 35.9492 28.2403 35.5902C28.2919 35.3904 28.3434 35.1906 28.3966 34.9848C28.5384 34.4464 28.5384 34.4464 28.5181 33.8888C28.6838 33.9065 28.8494 33.9242 29.0201 33.9424C31.3789 34.1904 31.3789 34.1904 33.4949 33.3101C34.3426 32.1633 34.7867 31.2177 34.7399 29.7591C34.5495 28.8991 34.014 28.3155 33.3329 27.7777C33.2107 27.7777 33.0885 27.7777 32.9625 27.7777C33.1997 27.0663 33.5191 26.9385 34.1308 26.5516C34.6394 26.137 34.7842 25.7276 34.8961 25.0897C34.9395 24.1112 34.8954 23.4696 34.2588 22.6967C33.4481 21.8925 32.5515 21.4679 31.4811 21.1111C31.5422 20.1333 31.6033 19.1555 31.6662 18.1481C31.2996 18.087 30.9329 18.0259 30.5551 17.9629C30.3718 18.8185 30.1885 19.674 29.9996 20.5555C29.3885 20.4944 28.7773 20.4333 28.1477 20.3703C28.3311 19.4537 28.5144 18.537 28.7033 17.5925C28.2755 17.4703 27.8477 17.3481 27.407 17.2222ZM49.8144 25.9259C49.7216 25.9908 49.6288 26.0558 49.5332 26.1227C49.2507 26.3205 48.9682 26.5182 48.6858 26.7159C48.3535 26.9485 48.0212 27.1811 47.6889 27.4138C46.843 28.006 45.997 28.598 45.1508 29.1898C43.6481 30.2407 42.1463 31.2928 40.6477 32.3495C40.5181 32.4408 40.3884 32.5322 40.2548 32.6263C40.074 32.7539 40.074 32.7539 39.8896 32.8841C39.733 32.9946 39.733 32.9946 39.5731 33.1074C39.4694 33.1819 39.3657 33.2565 39.2588 33.3333C39.1335 33.41 39.0083 33.4868 38.8792 33.5659C38.4103 33.9852 38.4038 34.2178 38.3519 34.8376C38.3341 35.0311 38.3162 35.2247 38.2977 35.4242C38.2819 35.6337 38.266 35.8432 38.2497 36.059C38.2306 36.2753 38.2116 36.4917 38.1919 36.7146C38.1316 37.4082 38.0759 38.1022 38.0204 38.7962C37.9811 39.2583 37.9414 39.7203 37.9014 40.1822C37.8278 41.0375 37.756 41.8929 37.6864 42.7484C37.6116 43.6678 37.5294 44.5862 37.4424 45.5045C37.401 45.9973 37.3882 46.4847 37.3954 46.9791C37.3971 47.1326 37.3987 47.2861 37.4005 47.4443C37.4037 47.6093 37.4037 47.6093 37.407 47.7777C42.8382 45.3592 46.6641 40.7976 48.8364 35.3269C49.8556 32.6028 50.5721 29.214 50.1848 26.2963C50.0014 26.1129 50.0014 26.1129 49.8144 25.9259ZM23.6115 40.1723C23.4474 40.21 23.2832 40.2478 23.1141 40.2868C22.9368 40.3284 22.7596 40.3701 22.577 40.413C22.2977 40.4775 22.2977 40.4775 22.0129 40.5434C21.4149 40.6817 20.8172 40.8211 20.2195 40.9606C19.4429 41.1411 18.6662 41.3212 17.8895 41.501C17.698 41.5453 17.5066 41.5897 17.3093 41.6354C15.309 42.0972 13.3032 42.5328 11.2959 42.9629C11.4404 43.1387 11.585 43.3144 11.734 43.4955C11.8153 43.5944 11.8966 43.6932 11.9804 43.7951C15.0897 47.388 20.7103 49.6142 25.3497 49.9761C29.0385 50.2015 32.462 49.8283 35.9255 48.5185C35.9255 48.3351 35.9255 48.1518 35.9255 47.9629C35.6594 47.6911 35.6594 47.6911 35.2925 47.4457C35.1538 47.3458 35.0151 47.2459 34.8722 47.1429C34.7194 47.0354 34.5667 46.9279 34.4093 46.8171C34.0845 46.5835 33.76 46.3496 33.4356 46.1154C33.2661 45.9934 33.0965 45.8713 32.9218 45.7456C32.0872 45.1372 31.2698 44.5067 30.451 43.8773C29.192 42.9156 27.9304 41.9578 26.6547 41.0185C26.5169 40.9151 26.3792 40.8117 26.2372 40.7052C26.1093 40.6119 25.9814 40.5186 25.8495 40.4224C25.7385 40.3404 25.6275 40.2584 25.5131 40.1739C24.8908 39.8442 24.2627 40.0206 23.6115 40.1723Z" fill="#F7931A"/>
<path id="Vector_2" d="M160.926 34.8149C161.659 34.8149 162.392 34.8149 163.148 34.8149C163.148 39.0926 163.148 43.3704 163.148 47.7778C165.592 47.7778 168.037 47.7778 170.555 47.7778C170.617 48.0834 170.678 48.3889 170.741 48.7038C170.787 48.5758 170.833 48.4478 170.881 48.3159C171.322 47.0959 171.763 45.8759 172.204 44.656C172.431 44.0292 172.658 43.4024 172.884 42.7755C174.617 37.9801 174.617 37.9801 175.299 36.1459C175.382 35.9232 175.465 35.7004 175.55 35.471C175.741 35 175.741 35 175.926 34.8149C176.425 34.8013 176.92 34.7977 177.419 34.8033C177.559 34.8041 177.7 34.805 177.845 34.8058C178.193 34.808 178.541 34.8113 178.889 34.8149C178.985 35.0834 178.985 35.0834 179.083 35.3574C179.392 36.2222 179.702 37.0868 180.011 37.9514C180.068 38.1103 180.125 38.2691 180.184 38.4327C181.243 41.3867 182.318 44.3345 183.403 47.2794C183.46 47.4358 183.518 47.5923 183.577 47.7535C183.685 48.0476 183.793 48.3417 183.902 48.6356C184.259 49.6088 184.259 49.6088 184.259 49.8149C183.404 49.8149 182.548 49.8149 181.667 49.8149C181.45 49.2055 181.234 48.5959 181.018 47.9862C180.957 47.8126 180.895 47.6391 180.831 47.4603C180.773 47.2944 180.714 47.1284 180.654 46.9575C180.599 46.8043 180.545 46.6511 180.489 46.4932C180.37 46.1112 180.37 46.1112 180.37 45.7408C177.345 45.8325 177.345 45.8325 174.259 45.926C173.84 47.1363 173.84 47.1363 173.423 48.3471C173.37 48.497 173.318 48.6469 173.264 48.8014C173.184 49.0327 173.184 49.0327 173.103 49.2687C172.963 49.6297 172.963 49.6297 172.778 49.8149C172.408 49.8323 172.038 49.8366 171.669 49.8359C171.308 49.8359 171.308 49.8359 170.94 49.8358C170.682 49.8349 170.424 49.8339 170.167 49.8329C169.934 49.8328 169.701 49.8326 169.462 49.8324C168.588 49.8314 167.714 49.8288 166.84 49.8264C164.888 49.8226 162.937 49.8188 160.926 49.8149C160.926 44.8649 160.926 39.9149 160.926 34.8149ZM177.222 37.2223C176.934 37.9962 176.648 38.7704 176.362 39.545C176.265 39.8082 176.167 40.0713 176.069 40.3344C175.928 40.7134 175.789 41.0927 175.649 41.4721C175.564 41.7 175.48 41.9279 175.393 42.1627C175.156 42.8208 175.156 42.8208 175 43.7038C176.528 43.7038 178.055 43.7038 179.629 43.7038C179.286 42.6668 179.286 42.6668 178.935 41.6088C178.864 41.3954 178.794 41.1819 178.721 40.9619C178.304 39.7074 177.866 38.4621 177.407 37.2223C177.346 37.2223 177.285 37.2223 177.222 37.2223Z" fill="#F69219"/>
<path id="Vector_3" d="M186.296 34.8148C194.099 34.8148 194.099 34.8148 195.544 35.706C196.246 36.4514 196.515 37.1095 196.562 38.125C196.533 39.0523 196.299 39.809 195.74 40.5556C195.344 40.8746 195.344 40.8746 195 41.1111C195.111 41.1806 195.223 41.25 195.338 41.3216C196.567 42.1087 197.435 42.7775 197.777 44.2593C197.935 45.7253 197.634 46.9621 196.828 48.1944C193.959 50.9391 190.184 49.8148 186.296 49.8148C186.296 44.8648 186.296 39.9148 186.296 34.8148ZM188.518 36.8519C188.518 38.1352 188.518 39.4185 188.518 40.7407C189.446 40.7579 189.446 40.7579 190.393 40.7755C190.586 40.7805 190.779 40.7856 190.978 40.7908C192.142 40.8012 192.956 40.6727 193.865 39.8843C194.192 39.1945 194.202 38.5257 194.074 37.7778C193.726 37.3145 193.474 37.1075 192.963 36.8519C192.627 36.8362 192.29 36.832 191.954 36.8338C191.755 36.8344 191.556 36.835 191.35 36.8356C191.037 36.8379 191.037 36.8379 190.717 36.8403C190.507 36.8411 190.297 36.842 190.08 36.8428C189.559 36.845 189.039 36.8483 188.518 36.8519ZM188.518 42.7778C188.518 44.4889 188.518 46.2 188.518 47.963C189.125 47.9706 189.733 47.9782 190.358 47.9861C190.546 47.9895 190.734 47.9929 190.928 47.9963C192.23 48.0042 193.497 47.9606 194.618 47.2454C195.207 46.6384 195.423 46.1346 195.428 45.2894C195.41 44.5524 195.294 44.1011 194.814 43.5185C194.031 42.8334 193.39 42.7549 192.37 42.7597C192.168 42.7602 191.967 42.7606 191.759 42.7611C191.375 42.7636 191.375 42.7636 190.983 42.7662C190.17 42.77 189.356 42.7738 188.518 42.7778Z" fill="#F69219"/>
<path id="Vector_4" d="M61.2959 10C69.0992 10 69.0992 10 70.5436 10.8912C71.2464 11.6366 71.5154 12.2947 71.5621 13.3102C71.5327 14.2375 71.2989 14.9942 70.7403 15.7407C70.3439 16.0598 70.3439 16.0598 69.9996 16.2963C70.1113 16.3658 70.223 16.4352 70.3381 16.5068C71.5673 17.2938 72.4354 17.9627 72.7774 19.4444C72.9353 20.9105 72.6341 22.1473 71.8283 23.3796C68.9589 26.1243 65.1841 25 61.2959 25C61.2959 20.05 61.2959 15.1 61.2959 10ZM63.5181 12.037C63.5181 13.3204 63.5181 14.6037 63.5181 15.9259C64.4462 15.9431 64.4462 15.9431 65.3931 15.9606C65.586 15.9657 65.7789 15.9708 65.9777 15.976C67.1419 15.9864 67.9557 15.8578 68.8653 15.0694C69.1921 14.3797 69.2015 13.7109 69.0737 12.963C68.7262 12.4997 68.4739 12.2927 67.9626 12.037C67.6267 12.0213 67.2904 12.0172 66.9542 12.019C66.7548 12.0195 66.5555 12.0201 66.3502 12.0208C66.0368 12.0231 66.0368 12.0231 65.7172 12.0255C65.5069 12.0263 65.2966 12.0271 65.0799 12.028C64.5593 12.0302 64.0387 12.0335 63.5181 12.037ZM63.5181 17.963C63.5181 19.6741 63.5181 21.3852 63.5181 23.1481C64.1254 23.1558 64.7327 23.1634 65.3584 23.1713C65.5463 23.1747 65.7341 23.178 65.9277 23.1815C67.2298 23.1893 68.4972 23.1458 69.6177 22.4306C70.2068 21.8236 70.4234 21.3198 70.4278 20.4745C70.4097 19.7376 70.2942 19.2862 69.8144 18.7037C69.0314 18.0186 68.39 17.9401 67.3701 17.9449C67.1685 17.9453 66.9668 17.9458 66.7591 17.9463C66.3751 17.9488 66.3751 17.9488 65.9834 17.9514C65.1699 17.9552 64.3563 17.959 63.5181 17.963Z" fill="#F69219"/>
<path id="Vector_5" d="M134.814 10C135.914 10 137.014 10 138.148 10C139.385 12.2478 140.605 14.5027 141.784 16.781C142.536 18.2312 143.305 19.6695 144.074 21.1111C144.135 17.4444 144.196 13.7778 144.259 10C144.931 10 145.603 10 146.296 10C146.614 10.3185 146.503 10.7238 146.504 11.1484C146.503 11.3552 146.503 11.3552 146.502 11.5662C146.502 11.7107 146.502 11.8552 146.502 12.0041C146.502 12.4841 146.501 12.964 146.499 13.444C146.499 13.7759 146.499 14.1078 146.498 14.4397C146.498 15.3149 146.496 16.1902 146.494 17.0655C146.492 17.9579 146.491 18.8504 146.49 19.7428C146.488 21.4952 146.485 23.2476 146.481 25C145.503 25 144.526 25 143.518 25C143.33 24.6329 143.142 24.2657 142.948 23.8874C141.609 21.2781 140.258 18.6778 138.842 16.1097C138.233 15.0029 137.636 13.8899 137.037 12.7778C136.976 16.8111 136.914 20.8444 136.851 25C136.179 25 135.507 25 134.814 25C134.814 20.05 134.814 15.1 134.814 10Z" fill="#F69219"/>
<path id="Vector_6" d="M120.956 11.0445C122.474 12.4759 123.293 14.4899 123.378 16.5567C123.437 19.2454 123.198 21.6299 121.297 23.7037C119.624 25.1711 117.709 25.5107 115.541 25.4362C113.584 25.2587 111.939 24.3792 110.681 22.8732C109.169 20.6031 109.057 17.8438 109.495 15.2336C109.891 13.4597 110.584 11.9388 112.095 10.8796C114.763 9.22029 118.376 9.08502 120.956 11.0445ZM112.778 13.3333C111.585 15.1281 111.393 17.3273 111.76 19.4155C112.19 20.9987 112.844 22.1531 114.284 22.9796C115.413 23.5295 116.83 23.5293 118.035 23.2197C119.157 22.7192 120.015 21.8116 120.568 20.7226C121.317 18.7286 121.286 16.4688 120.549 14.4813C119.963 13.2067 119.303 12.451 117.998 11.8865C116.038 11.2332 114.139 11.7993 112.778 13.3333Z" fill="#F69219"/>
<path id="Vector_7" d="M100.556 34.8148C108.118 34.8148 108.118 34.8148 109.63 36.1111C110.514 37.3273 110.703 38.5311 110.556 40C110.267 41.1866 109.802 42.0024 108.849 42.7669C108.494 42.9777 108.182 43.0695 107.778 43.1482C108.578 44.267 109.458 45.2979 110.361 46.3326C111.039 47.1094 111.712 47.8901 112.373 48.6806C112.599 48.9491 112.599 48.9491 112.828 49.2231C113.149 49.6296 113.149 49.6296 113.149 49.8148C110.631 50.124 110.631 50.124 109.635 49.4329C109.161 48.9033 108.745 48.3576 108.334 47.7778C108.047 47.4249 107.757 47.0738 107.466 46.7245C107.078 46.2556 106.704 45.796 106.366 45.2901C106.048 44.8114 106.048 44.8114 105.371 44.2593C104.088 44.1676 104.088 44.1676 102.778 44.0741C102.778 45.9685 102.778 47.863 102.778 49.8148C102.045 49.8148 101.312 49.8148 100.556 49.8148C100.556 44.8648 100.556 39.9148 100.556 34.8148ZM102.778 36.8519C102.778 38.563 102.778 40.2741 102.778 42.037C103.569 42.0542 103.569 42.0542 104.376 42.0718C104.54 42.0768 104.703 42.0819 104.872 42.0871C105.797 42.0968 106.424 41.9964 107.223 41.4815C107.898 40.733 108.176 40.2828 108.183 39.2824C108.187 39.0425 108.187 39.0425 108.191 38.7977C108.143 38.2694 108.095 38.0206 107.778 37.5926C106.713 36.7919 105.851 36.7572 104.549 36.8056C103.965 36.8208 103.38 36.8361 102.778 36.8519Z" fill="#F69219"/>
<path id="Vector_8" d="M67.952 34.5834C68.0964 34.6003 68.2408 34.6173 68.3896 34.6347C71.0878 34.9762 71.0878 34.9762 71.6673 35.5556C71.6807 35.9914 71.6828 36.4275 71.6788 36.8635C71.6772 37.1024 71.6755 37.3414 71.6738 37.5876C71.6716 37.7726 71.6695 37.9576 71.6673 38.1482C71.127 38.0326 70.8013 37.8934 70.3015 37.6158C68.6348 36.7684 66.6469 36.4285 64.8154 36.8519C64.2672 37.1119 64.2672 37.1119 63.8895 37.4075C63.7673 37.4075 63.645 37.4075 63.5191 37.4075C63.3513 37.911 63.2928 38.2618 63.2761 38.7848C63.2691 38.9259 63.2622 39.0669 63.2551 39.2123C63.3686 39.813 63.5895 40.0036 64.0747 40.3704C64.531 40.5247 64.9498 40.6413 65.4173 40.7408C65.6114 40.7863 65.6114 40.7863 65.8094 40.8328C66.3514 40.9597 66.8946 41.0803 67.4387 41.1978C70.9549 41.9612 70.9549 41.9612 72.0376 43.4839C72.4479 44.7917 72.5939 46.1198 72.0376 47.4075C71.0488 48.8731 69.7873 49.754 68.0562 50.1259C65.4189 50.4638 62.9421 50.0819 60.5562 48.8889C60.5562 48.0334 60.5562 47.1778 60.5562 46.2964C61.3728 46.4597 61.8515 46.6438 62.57 47.0255C64.343 47.9227 66.0846 48.2967 68.0706 47.8574C68.7108 47.6322 69.2058 47.3816 69.6302 46.8519C69.7435 46.457 69.7435 46.457 69.7691 46.0302C69.7834 45.8891 69.7978 45.748 69.8125 45.6026C69.8156 45.1564 69.8142 44.8533 69.6302 44.4445C68.963 44.1279 68.2934 43.9684 67.5722 43.8209C67.3563 43.7754 67.1404 43.7298 66.9179 43.6828C66.4677 43.5892 66.0173 43.4966 65.5666 43.405C62.5367 42.7606 62.5367 42.7606 61.5978 41.5857C61.5124 41.4828 61.4269 41.3799 61.3388 41.2739C60.6509 40.2201 60.607 39.1873 60.7413 37.963C61.0794 36.7326 61.9212 35.882 62.9636 35.1852C64.536 34.4241 66.2477 34.3722 67.952 34.5834Z" fill="#F69219"/>
<path id="Vector_9" d="M90.3704 34.8148C91.3481 34.8148 92.3259 34.8148 93.3333 34.8148C93.4883 35.2481 93.6432 35.6814 93.8028 36.1278C94.0204 36.7357 94.2382 37.3435 94.456 37.9514C94.5129 38.1102 94.5698 38.269 94.6285 38.4327C95.6875 41.3867 96.763 44.3345 97.8473 47.2793C97.9048 47.4358 97.9622 47.5923 98.0215 47.7535C98.1295 48.0476 98.2378 48.3416 98.3464 48.6355C98.7037 49.6087 98.7037 49.6087 98.7037 49.8148C97.8481 49.8148 96.9926 49.8148 96.1111 49.8148C95.8944 49.2055 95.6784 48.5959 95.463 47.9861C95.4011 47.8126 95.3393 47.639 95.2756 47.4602C95.2171 47.2943 95.1586 47.1284 95.0984 46.9575C95.0441 46.8042 94.9898 46.651 94.9338 46.4931C94.8148 46.1111 94.8148 46.1111 94.8148 45.7407C91.7898 45.8324 91.7898 45.8324 88.7037 45.9259C88.2848 47.1363 88.2848 47.1363 87.8672 48.347C87.815 48.497 87.7628 48.6469 87.7091 48.8014C87.6291 49.0327 87.6291 49.0327 87.5474 49.2686C87.4074 49.6296 87.4074 49.6296 87.2222 49.8148C86.8482 49.8282 86.4738 49.8303 86.0995 49.8264C85.895 49.8247 85.6904 49.8231 85.4796 49.8213C85.3213 49.8192 85.1631 49.817 85 49.8148C85.2838 48.3156 85.7855 46.9207 86.3122 45.4919C86.4055 45.2367 86.4987 44.9815 86.5918 44.7263C86.7863 44.1938 86.9816 43.6615 87.1774 43.1294C87.4267 42.4518 87.6746 41.7737 87.922 41.0955C88.1141 40.5691 88.3068 40.0429 88.4997 39.5168C88.5912 39.2671 88.6826 39.0173 88.7738 38.7674C89.2636 37.4276 89.7718 36.1099 90.3704 34.8148ZM91.6667 37.2222C91.3791 37.9961 91.0924 38.7704 90.8065 39.545C90.7092 39.8082 90.6117 40.0713 90.5139 40.3343C90.3731 40.7134 90.2331 41.0927 90.0933 41.4721C90.0089 41.7 89.9246 41.9279 89.8376 42.1627C89.6004 42.8207 89.6004 42.8207 89.4444 43.7037C90.9722 43.7037 92.5 43.7037 94.0741 43.7037C93.7303 42.6667 93.7303 42.6667 93.3796 41.6088C93.309 41.3953 93.2384 41.1818 93.1657 40.9619C92.7486 39.7073 92.3108 38.4621 91.8519 37.2222C91.7907 37.2222 91.7296 37.2222 91.6667 37.2222Z" fill="#F69219"/>
<path id="Vector_10" d="M126.482 34.8148C127.215 34.8148 127.948 34.8148 128.704 34.8148C128.707 35.1268 128.709 35.4388 128.712 35.7603C128.722 36.7958 128.734 37.8314 128.748 38.8669C128.756 39.4942 128.763 40.1215 128.768 40.7488C128.774 41.4715 128.784 42.194 128.794 42.9167C128.796 43.1399 128.797 43.3632 128.798 43.5932C128.815 45.5015 128.815 45.5015 129.707 47.1388C130.72 48.0264 131.626 48.0287 132.919 48.0129C133.789 47.9405 134.148 47.7903 134.815 47.2222C135.933 45.698 135.771 43.6936 135.8 41.8859C135.803 41.6827 135.807 41.4795 135.811 41.2702C135.823 40.6269 135.834 39.9836 135.845 39.3403C135.853 38.9018 135.861 38.4633 135.869 38.0248C135.889 36.9548 135.908 35.8848 135.926 34.8148C136.66 34.8148 137.393 34.8148 138.148 34.8148C138.158 36.1719 138.164 37.529 138.169 38.8861C138.171 39.3469 138.173 39.8078 138.176 40.2687C138.181 40.9343 138.183 41.6 138.185 42.2656C138.187 42.4688 138.188 42.6721 138.19 42.8814C138.191 44.8476 138.16 47.1342 136.74 48.6509C135.069 50.1598 133.271 50.3196 131.109 50.22C129.876 50.1034 128.644 49.5961 127.778 48.7037C126.451 47.0642 126.402 45.1951 126.428 43.1699C126.429 42.81 126.429 42.81 126.43 42.4429C126.432 41.8115 126.437 41.1801 126.444 40.5487C126.449 39.9019 126.452 39.2551 126.455 38.6082C126.461 37.3437 126.47 36.0793 126.482 34.8148Z" fill="#F69219"/>
<path id="Vector_11" d="M141.482 34.8148C148.593 34.8148 148.593 34.8148 150.186 36.1111C151.215 37.1405 151.414 38.0139 151.551 39.4097C151.508 40.7072 151.037 41.9885 150.162 42.9514C148.333 44.5852 146.025 44.4444 143.704 44.4444C143.704 46.2167 143.704 47.9889 143.704 49.8148C142.971 49.8148 142.237 49.8148 141.482 49.8148C141.482 44.8648 141.482 39.9148 141.482 34.8148ZM143.704 36.8519C143.704 38.6852 143.704 40.5185 143.704 42.4074C146.16 42.5873 146.16 42.5873 148.251 41.5806C148.978 40.743 149.133 40.2072 149.112 39.1327C149.056 38.4868 148.907 38.1139 148.519 37.5926C147.477 36.863 146.519 36.7535 145.278 36.8056C144.759 36.8208 144.239 36.8361 143.704 36.8519Z" fill="#F69219"/>
<path id="Vector_12" d="M107.592 10.9259C107.592 11.8426 107.592 12.7593 107.592 13.7037C106.893 13.4241 106.401 13.179 105.787 12.7778C104.403 11.9358 102.829 11.5709 101.229 11.9575C100.47 12.1931 99.8735 12.4468 99.259 12.963C99.1368 12.963 99.0145 12.963 98.8886 12.963C98.6072 13.5082 98.3646 14.0602 98.1363 14.6297C98.0414 14.8645 98.0414 14.8645 97.9446 15.1042C97.2971 16.8534 97.3956 18.8532 98.1479 20.5556C98.7556 21.7232 99.3475 22.4262 100.555 22.963C102.29 23.5067 104.145 23.2053 105.74 22.4074C106.189 22.1171 106.609 21.8026 107.037 21.4815C107.22 21.4815 107.403 21.4815 107.592 21.4815C107.592 22.3371 107.592 23.1926 107.592 24.0741C104.751 25.3297 102.093 25.8959 99.0738 24.8148C97.4011 24.0565 96.434 23.0201 95.6942 21.3542C94.8068 18.9222 94.7091 16.2154 95.6992 13.8021C96.5691 12.0011 97.6397 10.8674 99.5136 10.1273C102.316 9.20977 104.944 9.79518 107.592 10.9259Z" fill="#F69219"/>
<path id="Vector_13" d="M112.037 34.8148C116.315 34.8148 120.593 34.8148 125 34.8148C125 35.4259 125 36.037 125 36.6667C124.939 36.7278 124.878 36.7889 124.815 36.8519C123.104 36.8519 121.393 36.8519 119.63 36.8519C119.63 41.1296 119.63 45.4074 119.63 49.8148C118.896 49.8148 118.163 49.8148 117.407 49.8148C117.407 45.537 117.407 41.2593 117.407 36.8519C115.635 36.8519 113.863 36.8519 112.037 36.8519C112.037 36.1796 112.037 35.5074 112.037 34.8148Z" fill="#F69219"/>
<path id="Vector_14" d="M73.1484 34.8148C77.4262 34.8148 81.704 34.8148 86.1114 34.8148C86.1114 35.4259 86.1114 36.037 86.1114 36.6667C86.0503 36.7278 85.9892 36.7889 85.9262 36.8519C84.2151 36.8519 82.504 36.8519 80.741 36.8519C80.741 41.1296 80.741 45.4074 80.741 49.8148C80.0077 49.8148 79.2744 49.8148 78.5188 49.8148C78.5188 45.537 78.5188 41.2593 78.5188 36.8519C76.7466 36.8519 74.9744 36.8519 73.1484 36.8519C73.1484 36.1796 73.1484 35.5074 73.1484 34.8148Z" fill="#F69219"/>
<path id="Vector_15" d="M81.8516 10C86.1293 10 90.4071 10 94.8145 10C94.8145 10.6111 94.8145 11.2222 94.8145 11.8519C94.7534 11.913 94.6923 11.9741 94.6293 12.037C92.9182 12.037 91.2071 12.037 89.4442 12.037C89.4442 16.3148 89.4442 20.5926 89.4442 25C88.7108 25 87.9775 25 87.2219 25C87.2219 20.7222 87.2219 16.4444 87.2219 12.037C85.4497 12.037 83.6775 12.037 81.8516 12.037C81.8516 11.3648 81.8516 10.6926 81.8516 10Z" fill="#F69219"/>
<path id="Vector_16" d="M125.741 10C127.758 10 129.775 10 131.852 10C131.852 10.55 131.852 11.1 131.852 11.6667C131.791 11.7278 131.73 11.7889 131.667 11.8519C131.056 11.8519 130.445 11.8519 129.815 11.8519C129.815 15.6407 129.815 19.4296 129.815 23.3333C130.488 23.3333 131.16 23.3333 131.852 23.3333C131.852 23.8833 131.852 24.4333 131.852 25C129.836 25 127.819 25 125.741 25C125.741 24.45 125.741 23.9 125.741 23.3333C126.352 23.3333 126.963 23.3333 127.593 23.3333C127.593 19.5444 127.593 15.7556 127.593 11.8519C126.982 11.8519 126.371 11.8519 125.741 11.8519C125.741 11.2407 125.741 10.6296 125.741 10Z" fill="#F69219"/>
<path id="Vector_17" d="M74.6304 10C76.647 10 78.6637 10 80.7415 10C80.7415 10.55 80.7415 11.1 80.7415 11.6667C80.6804 11.7278 80.6193 11.7889 80.5563 11.8519C79.9452 11.8519 79.3341 11.8519 78.7044 11.8519C78.7044 15.6407 78.7044 19.4296 78.7044 23.3333C79.3767 23.3333 80.0489 23.3333 80.7415 23.3333C80.7415 23.8833 80.7415 24.4333 80.7415 25C78.7248 25 76.7081 25 74.6304 25C74.6304 24.45 74.6304 23.9 74.6304 23.3333C75.2415 23.3333 75.8526 23.3333 76.4822 23.3333C76.4822 19.5444 76.4822 15.7556 76.4822 11.8519C75.8711 11.8519 75.26 11.8519 74.6304 11.8519C74.6304 11.2407 74.6304 10.6296 74.6304 10Z" fill="#F69219"/>
<path id="Vector_18" d="M27.1056 27.3973C28.731 27.4926 29.9028 27.9056 31.2151 28.8658C31.5996 29.4342 31.6545 29.8738 31.6665 30.5556C31.3447 31.3423 30.9372 31.6673 30.185 32.0371C28.7329 32.2002 27.3281 32.0536 25.9257 31.6667C25.8973 30.7157 25.995 29.8393 26.1919 28.9121C26.2169 28.787 26.2418 28.6619 26.2675 28.533C26.4984 27.4113 26.4984 27.4113 27.1056 27.3973Z" fill="#F59A2C"/>
<path id="Vector_19" d="M27.7779 22.037C29.2075 22.2336 30.3445 22.4383 31.551 23.2638C31.9499 23.8469 31.9554 24.2816 31.9257 24.9768C31.8196 25.5428 31.5739 25.7844 31.1112 26.1111C30.558 26.3877 29.9927 26.3304 29.3866 26.331C29.1429 26.3336 28.8992 26.3362 28.6481 26.3389C28.0147 26.2995 27.6014 26.202 27.0371 25.9259C27.1488 24.5859 27.4288 23.3344 27.7779 22.037Z" fill="#F69219"/>
<path id="Vector_20" d="M24.259 25.3704C24.6451 26.1425 24.1206 27.2497 23.9234 28.0555C23.8726 28.2716 23.8219 28.4876 23.7696 28.7102C23.7199 28.9162 23.6701 29.1222 23.6188 29.3345C23.573 29.5241 23.5272 29.7138 23.4801 29.9092C23.3331 30.3704 23.3331 30.3704 22.9627 30.7407C22.5214 30.7769 22.5214 30.7769 22.0136 30.7639C21.7608 30.7589 21.7608 30.7589 21.5029 30.7538C21.3735 30.7495 21.2442 30.7452 21.1109 30.7407C20.9275 31.3824 20.9275 31.3824 20.7405 32.037C20.9501 32.0819 21.1597 32.1268 21.3756 32.173C21.6501 32.2356 21.9245 32.2983 22.1988 32.3611C22.4061 32.4048 22.4061 32.4048 22.6177 32.4494C23.6267 32.6857 23.6267 32.6857 23.9928 33.125C24.1346 33.8137 23.9032 34.3342 23.7035 35C23.6423 35 23.5812 35 23.5183 35C23.4951 33.7731 23.4951 33.7731 23.7035 33.1481C23.4972 33.129 23.291 33.1099 23.0785 33.0903C22.1413 32.9761 21.2653 32.6991 20.3701 32.4074C20.3701 32.0407 20.3701 31.6741 20.3701 31.2963C20.4923 31.2963 20.6146 31.2963 20.7405 31.2963C20.8016 30.9907 20.8627 30.6852 20.9257 30.3704C21.5368 30.3704 22.1479 30.3704 22.7775 30.3704C23.1188 29.3221 23.2803 28.275 23.4322 27.1839C23.5183 26.6667 23.5183 26.6667 23.7035 26.2963C23.8257 26.2963 23.9479 26.2963 24.0738 26.2963C24.1349 25.9907 24.196 25.6852 24.259 25.3704Z" fill="#F69219"/>
<path id="Vector_21" d="M30.1855 17.7778C30.7967 17.8389 31.4078 17.9001 32.0374 17.963C31.9763 18.9408 31.9152 19.9186 31.8522 20.926C32.1119 21.0406 32.3717 21.1551 32.6393 21.2732C32.9331 21.4029 33.2264 21.534 33.5189 21.6667C33.6571 21.7281 33.7953 21.7894 33.9377 21.8526C34.2596 22.0371 34.2596 22.0371 34.3638 22.419C34.3905 22.5374 34.4173 22.6558 34.4448 22.7778C34.6281 22.8389 34.8115 22.9001 35.0004 22.963C34.8781 23.1463 34.7559 23.3297 34.63 23.5186C34.567 23.4336 34.5039 23.3486 34.439 23.261C33.7366 22.3719 33.0702 21.9227 32.0374 21.4815C31.7898 21.3595 31.5427 21.2364 31.2967 21.1112C31.4023 20.1204 31.5202 19.1338 31.667 18.1482C31.3615 18.1482 31.0559 18.1482 30.7411 18.1482C30.6189 18.5149 30.4967 18.8815 30.3707 19.2593C30.3096 19.2593 30.2485 19.2593 30.1855 19.2593C30.1855 18.7704 30.1855 18.2815 30.1855 17.7778Z" fill="#F69219"/>
<path id="Vector_22" d="M27.223 17.037C27.5832 16.9828 27.5832 16.9828 27.9869 17.0023C28.2237 17.0138 28.4605 17.0252 28.7044 17.037C28.7656 17.2204 28.8267 17.4037 28.8896 17.5926C28.4619 17.5315 28.0341 17.4704 27.5933 17.4074C27.5196 17.6616 27.5196 17.6616 27.4443 17.921C27.3462 18.2512 27.3462 18.2512 27.2461 18.588C27.1817 18.8071 27.1172 19.0262 27.0508 19.252C26.8526 19.8148 26.8526 19.8148 26.4822 20.1852C26.041 20.1403 26.041 20.1403 25.5331 20.0232C25.3646 19.9854 25.1961 19.9477 25.0224 19.9089C24.8284 19.8623 24.8284 19.8623 24.6304 19.8148C24.6304 19.7537 24.6304 19.6926 24.6304 19.6296C25.2415 19.5685 25.8526 19.5074 26.4822 19.4444C26.5357 19.1504 26.5892 18.8563 26.6443 18.5532C26.7613 17.9093 26.8521 17.5934 27.223 17.037Z" fill="#F69219"/>
<path id="Vector_23" d="M25.8919 33.2986C26.4822 33.3333 26.4822 33.3333 27.223 33.7037C27.1007 34.3759 26.9785 35.0481 26.8526 35.7407C26.7915 35.7407 26.7304 35.7407 26.6674 35.7407C26.6674 35.1296 26.6674 34.5185 26.6674 33.8889C26.3007 33.8889 25.9341 33.8889 25.5563 33.8889C25.5219 34.1238 25.5219 34.1238 25.4869 34.3634C25.366 35.0282 25.1947 35.6496 25.0007 36.2963C24.8785 36.2963 24.7563 36.2963 24.6304 36.2963C24.7182 35.837 24.8071 35.3779 24.8966 34.919C24.9215 34.788 24.9465 34.6571 24.9722 34.5222C25.2032 33.3445 25.2032 33.3445 25.8919 33.2986Z" fill="#F69219"/>
<path id="Vector_24" d="M34.8147 23.5186C34.8759 23.5186 34.937 23.5186 34.9999 23.5186C35.0099 23.939 35.0171 24.3596 35.0231 24.7801C35.0274 25.0143 35.0317 25.2485 35.0361 25.4898C34.9999 26.1111 34.9999 26.1111 34.6296 26.6667C34.4462 26.7278 34.2629 26.7889 34.074 26.8519C33.8483 27.3157 33.8483 27.3157 33.7036 27.7778C34.0092 28.0834 34.3147 28.3889 34.6296 28.7037C34.5684 28.8871 34.5073 29.0704 34.4444 29.2593C34.3305 29.1222 34.3305 29.1222 34.2143 28.9822C34.0647 28.8043 34.0647 28.8043 33.912 28.6227C33.8131 28.5046 33.7143 28.3864 33.6125 28.2646C33.3477 27.943 33.3477 27.943 32.9629 27.7778C32.986 27.4537 32.986 27.4537 33.1481 27.0371C33.516 26.7866 33.8865 26.5397 34.2592 26.2963C34.6405 25.7121 34.6962 25.1788 34.7453 24.4908C34.7591 24.3084 34.773 24.126 34.7873 23.9381C34.7963 23.7997 34.8054 23.6612 34.8147 23.5186Z" fill="#F69219"/>
<path id="Vector_25" d="M31.667 21.1111C32.6019 21.2046 33.5016 21.4671 34.2596 22.037C34.324 22.2832 34.386 22.5301 34.4448 22.7778C34.6281 22.8389 34.8114 22.9 35.0003 22.9629C34.817 23.2379 34.817 23.2379 34.63 23.5185C34.4848 23.3237 34.3397 23.1289 34.1901 22.9282C33.4932 22.104 32.6449 21.7156 31.667 21.2963C31.667 21.2352 31.667 21.174 31.667 21.1111Z" fill="#F69219"/>
<path id="Vector_26" d="M26.6665 27.4074C26.9162 28.1173 26.8142 28.7318 26.7128 29.4676C26.6684 29.8121 26.6684 29.8121 26.6231 30.1635C26.4813 30.7407 26.4813 30.7407 25.9258 31.1111C26.2432 27.8307 26.2432 27.8307 26.6665 27.4074Z" fill="#F69219"/>
<path id="Vector_27" d="M27.5647 17.0189C27.9444 17.0249 28.3242 17.031 28.704 17.037C28.7651 17.2203 28.8262 17.4037 28.8892 17.5926C28.4614 17.5314 28.0336 17.4703 27.5929 17.4074C27.4095 18.0185 27.2262 18.6296 27.0373 19.2592C26.8421 18.4784 26.8899 18.0035 27.0373 17.2222C27.2225 17.037 27.2225 17.037 27.5647 17.0189Z" fill="#F69219"/>
<path id="Vector_28" d="M22.9629 19.2593C23.3296 19.2593 23.6962 19.2593 24.074 19.2593C24.074 19.3815 24.074 19.5037 24.074 19.6296C23.8296 19.5685 23.5851 19.5074 23.3333 19.4445C23.2721 19.8722 23.211 20.3 23.1481 20.7408C23.3314 20.863 23.5147 20.9852 23.7036 21.1111C23.337 21.1111 22.9703 21.1111 22.5925 21.1111C22.5593 20.3802 22.5752 19.8893 22.9629 19.2593Z" fill="#F69219"/>
<path id="Vector_29" d="M31.6663 19.6296C31.8715 20.2454 31.8227 20.6707 31.6663 21.2963C31.544 21.2352 31.4218 21.1741 31.2959 21.1111C31.4579 19.838 31.4579 19.838 31.6663 19.6296Z" fill="#F69219"/>
</g>
</svg>
