<svg width="32" height="32" viewBox="0 0 32 32" fill="none" xmlns="http://www.w3.org/2000/svg">
<g id="matic">
<path id="Vector" d="M16 32C24.8366 32 32 24.8366 32 16C32 7.16344 24.8366 0 16 0C7.16344 0 0 7.16344 0 16C0 24.8366 7.16344 32 16 32Z" fill="#8247E5"/>
<path id="Vector_2" d="M21.2955 12.5767C20.9118 12.3535 20.4129 12.3535 19.9908 12.5767L16.9974 14.2883L14.9635 15.4046L11.9701 17.1162C11.5863 17.3395 11.0875 17.3395 10.6653 17.1162L8.28595 15.7767C7.9022 15.5535 7.63358 15.1441 7.63358 14.6976V12.0558C7.63358 11.6093 7.86383 11.2 8.28595 10.9767L10.6269 9.67436C11.0107 9.45111 11.5096 9.45111 11.9317 9.67436L14.2727 10.9767C14.6565 11.2 14.9251 11.6093 14.9251 12.0558V13.7674L16.959 12.6139V10.9023C16.959 10.4558 16.7288 10.0465 16.3066 9.8232L11.9701 7.36739C11.5863 7.14414 11.0875 7.14414 10.6653 7.36739L6.25202 9.8232C5.82986 10.0465 5.59961 10.4558 5.59961 10.9023V15.8511C5.59961 16.2976 5.82986 16.7069 6.25202 16.9302L10.6653 19.386C11.0491 19.6093 11.548 19.6093 11.9701 19.386L14.9635 17.7116L16.9974 16.5581L19.9908 14.8837C20.3745 14.6604 20.8734 14.6604 21.2955 14.8837L23.6365 16.186C24.0203 16.4093 24.2889 16.8185 24.2889 17.2651V19.9069C24.2889 20.3535 24.0586 20.7627 23.6365 20.986L21.2955 22.3255C20.9118 22.5488 20.4129 22.5488 19.9908 22.3255L17.6498 21.0232C17.266 20.8 16.9974 20.3906 16.9974 19.9441V18.2325L14.9635 19.386V21.0976C14.9635 21.5441 15.1937 21.9535 15.6159 22.1767L20.0291 24.6325C20.4129 24.8558 20.9118 24.8558 21.3339 24.6325L25.7472 22.1767C26.131 21.9535 26.3996 21.5441 26.3996 21.0976V16.1488C26.3996 15.7023 26.1694 15.293 25.7472 15.0697L21.2955 12.5767Z" fill="white"/>
</g>
</svg>
