<svg width="16" height="16" viewBox="0 0 16 16" fill="none" xmlns="http://www.w3.org/2000/svg">
<path d="M8 16C12.4183 16 16 12.4183 16 8C16 3.58172 12.4183 0 8 0C3.58172 0 0 3.58172 0 8C0 12.4183 3.58172 16 8 16Z" fill="#8247E5"/>
<path d="M10.6478 6.28823C10.4559 6.1766 10.2064 6.1766 9.99538 6.28823L8.49869 7.14404L7.48173 7.70218L5.98505 8.55799C5.79316 8.66962 5.54373 8.66962 5.33265 8.55799L4.14298 7.88823C3.9511 7.7766 3.81679 7.57195 3.81679 7.34868V6.02776C3.81679 5.80451 3.93191 5.59985 4.14298 5.48823L5.31346 4.83706C5.50534 4.72543 5.75479 4.72543 5.96587 4.83706L7.13634 5.48823C7.32823 5.59985 7.46254 5.80451 7.46254 6.02776V6.88357L8.47951 6.30682V5.45101C8.47951 5.22776 8.36438 5.0231 8.15332 4.91148L5.98505 3.68357C5.79316 3.57195 5.54373 3.57195 5.33265 3.68357L3.12601 4.91148C2.91493 5.0231 2.7998 5.22776 2.7998 5.45101V7.92543C2.7998 8.14868 2.91493 8.35334 3.12601 8.46496L5.33265 9.69287C5.52454 9.80451 5.77398 9.80451 5.98505 9.69287L7.48173 8.85567L8.49869 8.27892L9.99538 7.44171C10.1873 7.33009 10.4367 7.33009 10.6478 7.44171L11.8183 8.09287C12.0101 8.20451 12.1445 8.40915 12.1445 8.63242V9.95334C12.1445 10.1766 12.0293 10.3812 11.8183 10.4929L10.6478 11.1627C10.4559 11.2743 10.2064 11.2743 9.99538 11.1627L8.8249 10.5115C8.63302 10.3999 8.49869 10.1952 8.49869 9.97195V9.11614L7.48173 9.69287V10.5487C7.48173 10.7719 7.59685 10.9766 7.80793 11.0882L10.0146 12.3161C10.2064 12.4278 10.4559 12.4278 10.667 12.3161L12.8736 11.0882C13.0655 10.9766 13.1998 10.7719 13.1998 10.5487V8.07428C13.1998 7.85101 13.0847 7.64637 12.8736 7.53473L10.6478 6.28823Z" fill="white"/>
</svg>
